<svg xmlns="http://www.w3.org/2000/svg" width="189" height="54.989" viewBox="0 0 189 54.989">
  <g id="logo" transform="translate(0 -0.029)">
    <path id="Path_344" data-name="Path 344" d="M0,15.951v.14L31.85,31.042l31.964-15V16L31.85,1Zm11.483.071L31.85,6.46l20.372,9.562L31.85,25.582l-20.368-9.56ZM31.85,36.849,0,22.123V27.57L31.85,42.332,63.815,27.519V22.071Zm0,11.049L0,33.168v5.446L31.85,53.379,63.815,38.565V33.118Z" transform="translate(0 0.136)" fill="#fff" fill-rule="evenodd"/>
    <g id="Group_22" data-name="Group 22" transform="translate(81.928 0.029)">
      <path id="Path_345" data-name="Path 345" d="M99.777,27.5a9.22,9.22,0,0,0-2.463-6.346,8.272,8.272,0,0,0-2.667-1.905,8.054,8.054,0,0,0-6.5,0,8.27,8.27,0,0,0-2.667,1.905,9.413,9.413,0,0,0,0,12.693,8.27,8.27,0,0,0,2.667,1.9,8.044,8.044,0,0,0,6.5,0,8.272,8.272,0,0,0,2.665-1.9A9.22,9.22,0,0,0,99.776,27.5Zm7.31,0a15.249,15.249,0,0,1-1.219,6.118,14.915,14.915,0,0,1-3.35,4.874A15.992,15.992,0,0,1,91.4,42.934a15.574,15.574,0,0,1-6.092-1.193,15.8,15.8,0,0,1-4.975-3.275A15.2,15.2,0,0,1,75.762,27.5a14.728,14.728,0,0,1,1.244-6.017,15.851,15.851,0,0,1,3.375-4.925A15.628,15.628,0,0,1,91.4,12.063a15.992,15.992,0,0,1,11.119,4.443,14.827,14.827,0,0,1,3.35,4.9A15.306,15.306,0,0,1,107.087,27.5ZM73.223,42.021a9.8,9.8,0,0,1-1.954.66,9.98,9.98,0,0,1-2.259.253,11.221,11.221,0,0,1-3.122-.432,6.842,6.842,0,0,1-2.615-1.4,6.768,6.768,0,0,1-1.778-2.513,9.525,9.525,0,0,1-.659-3.732V.029H68.3V33.592a3.374,3.374,0,0,0,.736,2.513,2.483,2.483,0,0,0,1.751.686,4.395,4.395,0,0,0,2.436-.762v5.992ZM57.536,12.772l-13.2,34.884a11.886,11.886,0,0,1-3.859,5.637,9.446,9.446,0,0,1-5.686,1.725,9.186,9.186,0,0,1-1.117-.075,8.384,8.384,0,0,1-1.168-.229l-2.436-6.8a9.674,9.674,0,0,0,1.778.634,7.106,7.106,0,0,0,1.725.229,6.385,6.385,0,0,0,3.147-.787,5.1,5.1,0,0,0,2.183-2.92l1.015-2.945L28.6,12.774h7.971L43.32,31.663l6.347-18.889h7.869ZM26.821,8.357H7.731V17.8H26.567v6.4H7.73V42.172H.015V1.6H26.822V8.357Z" transform="translate(-0.015 -0.029)" fill="#fff" fill-rule="evenodd"/>
    </g>
  </g>
</svg>
