<svg xmlns="http://www.w3.org/2000/svg" width="29" height="29" viewBox="0 0 29 29">
  <g id="Group_26" data-name="Group 26" transform="translate(-187 -2961)">
    <g id="icon-twitter" transform="translate(451 3178)">
      <path id="icon-twitter-2" data-name="icon-twitter" d="M12.841,1.235a5.488,5.488,0,0,1-1.517.416A2.618,2.618,0,0,0,12.482.2a5.261,5.261,0,0,1-1.669.637,2.632,2.632,0,0,0-4.554,1.8,2.711,2.711,0,0,0,.061.6A7.451,7.451,0,0,1,.894.48,2.633,2.633,0,0,0,1.7,4,2.6,2.6,0,0,1,.514,3.674V3.7A2.645,2.645,0,0,0,2.623,6.289a2.627,2.627,0,0,1-.69.087,2.328,2.328,0,0,1-.5-.045,2.657,2.657,0,0,0,2.46,1.834A5.289,5.289,0,0,1,.63,9.288,4.931,4.931,0,0,1,0,9.252a7.411,7.411,0,0,0,4.038,1.181,7.441,7.441,0,0,0,7.492-7.491c0-.116,0-.229-.01-.34A5.252,5.252,0,0,0,12.841,1.235Z" transform="translate(-256 -208)" fill="#fff"/>
    </g>
    <g id="Ellipse_74" data-name="Ellipse 74" transform="translate(187 2961)" fill="none" stroke="#fff" stroke-width="1">
      <circle cx="14.5" cy="14.5" r="14.5" stroke="none"/>
      <circle cx="14.5" cy="14.5" r="14" fill="none"/>
    </g>
  </g>
</svg>
